# xmcd
#
# Track frame offsets:
#	150
#	10725
#	54525
#	79200
#	85650
#	121800
#
# Disc length: 2158 seconds
#
# Revision: 1
# Processed by: cddbd v1.5.1PL0 Copyright (c) Steve Scherf et al.
# Submitted via: CDex 1.50Beta5
#
DISCID=3b086c06
DTITLE=サニーデイ・サービス - Party Love Album
DYEAR=1900
DGENRE=Pop
TTITLE0=Intro
TTITLE1=Wild Wild Party
TTITLE2=Mangekyo
TTITLE3=Outro
TTITLE4=Maho
TTITLE5=Ai No Scene
EXTD=
EXTT0=
EXTT1=
EXTT2=
EXTT3=
EXTT4=
EXTT5=
PLAYORDER=
